<svg width="32" height="32" viewBox="0 0 32 32" fill="none" xmlns="http://www.w3.org/2000/svg">
  <!-- Shopping Bag Icon -->
  <g>
    <!-- Bag body -->
    <path d="M8 10 L5 24 C4.8 26 6 28 8 28 L24 28 C26 28 27.2 26 27 24 L24 10 Z" fill="#2C2C2C"/>
    <path d="M8 10 L5 24 C4.8 26 6 28 8 28 L24 28 C26 28 27.2 26 27 24 L24 10 Z" fill="url(#goldGrad)" opacity="0.3"/>

    <!-- Bag top -->
    <rect x="7" y="9" width="18" height="2" rx="1" fill="#2C2C2C"/>

    <!-- Handle -->
    <path d="M11 9 C11 6 13 4 16 4 C19 4 21 6 21 9" stroke="#D4AF37" stroke-width="1.5" stroke-linecap="round" fill="none"/>

    <!-- Decorative accent -->
    <circle cx="16" cy="19" r="1.2" fill="#D4AF37"/>
  </g>

  <!-- Gradient Definition -->
  <defs>
    <linearGradient id="goldGrad" x1="0%" y1="0%" x2="100%" y2="100%">
      <stop offset="0%" style="stop-color:#D4AF37;stop-opacity:1" />
      <stop offset="100%" style="stop-color:#8B7355;stop-opacity:1" />
    </linearGradient>
  </defs>
</svg>
